<svg width="59" height="61" viewBox="0 0 59 61" fill="none" xmlns="http://www.w3.org/2000/svg">
<path d="M29.5 61C45.7924 61 59 47.3447 59 30.5C59 13.6553 45.7924 0 29.5 0C13.2076 0 0 13.6553 0 30.5C0 47.3447 13.2076 61 29.5 61Z" fill="white"/>
<path d="M23.0527 31C27.6801 32.8982 30.2626 32.8482 34.89 31L42 47H16L23.0527 31Z" fill="black"/>
<path d="M29.5 27C33.0898 27 36 24.0899 36 20.5C36 16.9102 33.0898 14 29.5 14C25.9101 14 23 16.9102 23 20.5C23 24.0899 25.9101 27 29.5 27Z" fill="black"/>
</svg>
