<svg width="50" height="50" viewBox="0 0 50 50" fill="none" xmlns="http://www.w3.org/2000/svg">
<path d="M46.6801 6.38331C49.2362 15.6909 45.3553 27.5489 36.8246 34.1685C36.7572 32.1792 35.9633 30.2105 34.4457 28.6929L25.0902 38.0484L15.015 27.9732L24.3705 18.6177C22.8519 17.0991 20.8832 16.3062 18.8939 16.2388C25.5892 7.62326 37.4648 3.85255 46.6801 6.38331Z" fill="#C6DEFF"/>
<path d="M38.7631 14.3003C40.7504 16.2866 40.7504 19.5093 38.7631 21.4966C36.7758 23.4839 33.5541 23.4839 31.5668 21.4966C29.5795 19.5093 29.5795 16.2866 31.5668 14.3003C33.5541 12.313 36.7758 12.313 38.7631 14.3003ZM36.8246 34.1685C36.8285 34.2622 36.8304 34.3569 36.8304 34.4507C36.8304 36.5337 36.0355 38.6177 34.4457 40.2075L27.2494 47.4038L25.0902 38.0483L34.4457 28.6929C35.9633 30.2105 36.7572 32.1792 36.8246 34.1685ZM18.8939 16.2388C20.8832 16.3062 22.8519 17.0991 24.3705 18.6177L15.015 27.9731L5.65955 25.814L12.8558 18.6177C14.4457 17.0278 16.5297 16.2329 18.6127 16.2329C18.7064 16.2329 18.8002 16.2349 18.8939 16.2388Z" fill="white"/>
<path d="M36.3217 16.7417C36.9613 17.3804 36.9613 18.4165 36.3217 19.0552C35.683 19.6938 34.6469 19.6938 34.0082 19.0552C33.3695 18.4165 33.3695 17.3804 34.0082 16.7417C34.6469 16.1021 35.683 16.1021 36.3217 16.7417Z" fill="white"/>
<path d="M36.8239 35.1452C36.6957 35.1454 36.5687 35.1203 36.4503 35.0712C36.3318 35.0222 36.2242 34.9502 36.1336 34.8595C35.7523 34.4781 35.7518 33.8602 36.1331 33.4788L36.1341 33.4778C36.163 33.4489 36.1937 33.4219 36.226 33.3969C37.0406 32.7645 37.8148 32.0819 38.5442 31.3528C44.8589 25.0391 47.8277 15.184 45.8789 7.18446C37.8797 5.23583 28.0245 8.2039 21.7106 14.5182C20.9813 15.2483 20.2982 16.023 19.6652 16.838C19.6353 16.8764 19.6027 16.9125 19.5675 16.9459C19.177 17.3179 18.5584 17.3033 18.1864 16.9127C18.0221 16.7404 17.9265 16.514 17.9174 16.2762C17.9084 16.0383 17.9865 15.8053 18.1372 15.6211C18.8162 14.7487 19.5483 13.9191 20.3295 13.1369C23.7448 9.72167 28.0884 7.17577 32.8906 5.7747C37.7315 4.3622 42.5892 4.24696 46.9388 5.44169C47.1021 5.48651 47.2509 5.57305 47.3707 5.6928C47.4904 5.81254 47.577 5.96139 47.6218 6.1247C48.8163 10.4743 48.7012 15.332 47.2886 20.1728C45.8873 24.9752 43.3411 29.3187 39.9253 32.7341C39.1412 33.5178 38.3091 34.2519 37.4336 34.932C37.2605 35.0703 37.0455 35.1455 36.8239 35.1452ZM25.0903 39.0249C24.962 39.0251 24.835 38.9999 24.7165 38.9508C24.598 38.9017 24.4903 38.8297 24.3997 38.7389L14.3245 28.6636C13.9432 28.2821 13.9433 27.6639 14.3246 27.2824C14.7061 26.9012 15.3243 26.9013 15.7057 27.2826L25.7808 37.3577C26.1621 37.7391 26.1621 38.3574 25.7808 38.7389C25.6902 38.8297 25.5826 38.9017 25.4641 38.9508C25.3456 38.9999 25.2185 39.0251 25.0903 39.0249Z" fill="#0C5BC6"/>
<path d="M27.2493 48.3804C27.0285 48.3804 26.8142 48.3055 26.6414 48.168C26.4686 48.0306 26.3475 47.8386 26.2979 47.6234L24.1387 38.268C24.1014 38.1066 24.1058 37.9384 24.1515 37.7792C24.1971 37.6199 24.2825 37.4749 24.3996 37.3578L33.7551 28.0023C34.1365 27.6211 34.7547 27.6211 35.1362 28.0023C36.775 29.6411 37.7211 31.8178 37.8005 34.1316C37.8048 34.2364 37.8069 34.3438 37.8069 34.4508C37.8069 36.8861 36.8584 39.1759 35.1361 40.8981L27.94 48.0944C27.8493 48.1851 27.7416 48.257 27.6231 48.3061C27.5046 48.3552 27.3776 48.3804 27.2493 48.3804ZM26.1635 38.3562L27.8048 45.4674L33.7552 39.5169C35.1086 38.1637 35.8539 36.3645 35.8539 34.4507C35.8539 34.3705 35.8523 34.2894 35.8489 34.2091L35.8486 34.2015C35.7981 32.7111 35.2898 31.2932 34.3988 30.1207L26.1635 38.3562ZM15.0151 28.9497C14.9419 28.9497 14.8684 28.9415 14.7954 28.9247L5.43996 26.7655C5.27008 26.7264 5.1138 26.6424 4.98732 26.5224C4.86085 26.4024 4.76881 26.2508 4.72075 26.0832C4.6727 25.9156 4.67038 25.7382 4.71405 25.5695C4.75771 25.4007 4.84576 25.2467 4.96906 25.1234L12.1653 17.9271C13.8877 16.2049 16.1775 15.2563 18.6127 15.2563C18.7173 15.2563 18.8241 15.2585 18.9303 15.2629C21.2448 15.3421 23.4221 16.2882 25.061 17.9271C25.2442 18.1102 25.347 18.3586 25.347 18.6176C25.347 18.8766 25.2442 19.125 25.061 19.3081L15.7056 28.6637C15.5224 28.8468 15.2741 28.9497 15.0151 28.9497ZM7.59601 25.2586L14.7072 26.8999L22.9427 18.6645C21.7701 17.7735 20.3518 17.2652 18.861 17.2147L18.8533 17.2145C18.7732 17.2111 18.693 17.2094 18.6128 17.2094C16.6991 17.2094 14.8999 17.9548 13.5465 19.3081L7.59601 25.2586ZM35.165 23.9606C33.6118 23.9606 32.0586 23.3694 30.8763 22.1871C29.7308 21.0416 29.0998 19.5184 29.0998 17.898C29.0998 16.2777 29.7308 14.7547 30.8765 13.6095C33.2411 11.2449 37.0888 11.245 39.4536 13.6097C40.5991 14.7548 41.2301 16.2777 41.2301 17.898C41.2301 19.5184 40.5991 21.0415 39.4536 22.1871C38.2712 23.3695 36.7181 23.9606 35.165 23.9606ZM35.1649 13.7884C34.1119 13.7884 33.059 14.1892 32.2574 14.9908C31.4807 15.7672 31.0529 16.7996 31.0529 17.8981C31.0529 18.9967 31.4807 20.0294 32.2574 20.8061C33.0341 21.5827 34.0666 22.0105 35.165 22.0105C36.2633 22.0105 37.2958 21.5827 38.0725 20.8061C38.8492 20.0294 39.277 18.9967 39.277 17.8981C39.277 16.7997 38.8492 15.7673 38.0727 14.991C37.2709 14.1893 36.2179 13.7884 35.1649 13.7884Z" fill="#0C5BC6"/>
<path d="M35.165 20.5097C34.4959 20.5097 33.827 20.2551 33.3177 19.7458C32.299 18.7271 32.299 17.0698 33.3177 16.0512C33.8106 15.5575 34.4668 15.2854 35.165 15.2854C35.8631 15.2854 36.5193 15.5575 37.0127 16.0518C37.5059 16.544 37.778 17.2003 37.778 17.8984C37.778 18.5964 37.5061 19.2524 37.0122 19.7458C36.5029 20.255 35.8339 20.5097 35.165 20.5097ZM35.165 17.2385C35.0784 17.2382 34.9927 17.2552 34.9127 17.2884C34.8328 17.3215 34.7602 17.3702 34.6992 17.4316C34.4416 17.6893 34.4416 18.1076 34.6987 18.3646C34.8225 18.4881 34.9901 18.5575 35.1649 18.5575C35.3397 18.5575 35.5074 18.4881 35.6311 18.3646L35.6317 18.3641C35.6931 18.3031 35.7418 18.2305 35.775 18.1506C35.8082 18.0706 35.8251 17.9849 35.8249 17.8983C35.8251 17.8118 35.8082 17.7261 35.775 17.6461C35.7418 17.5662 35.6931 17.4937 35.6317 17.4327C35.5706 17.371 35.4979 17.3221 35.4178 17.2887C35.3377 17.2554 35.2517 17.2383 35.165 17.2385ZM14.1899 44.2632C14.0616 44.2633 13.9346 44.2382 13.8161 44.1891C13.6975 44.14 13.5899 44.068 13.4993 43.9771C13.118 43.5958 13.118 42.9774 13.4993 42.596L21.5687 34.5267C21.95 34.1454 22.5684 34.1454 22.9498 34.5267C23.3312 34.908 23.3312 35.5264 22.9498 35.9078L14.8805 43.9771C14.7899 44.068 14.6822 44.14 14.5637 44.189C14.4452 44.2381 14.3181 44.2633 14.1899 44.2632ZM5.09122 45.8101C4.96296 45.8102 4.83592 45.785 4.71742 45.7359C4.59892 45.6869 4.49128 45.6148 4.4007 45.524C4.01935 45.1427 4.01935 44.5243 4.4007 44.1429L17.7923 30.7513C18.1737 30.37 18.792 30.3701 19.1735 30.7513C19.5548 31.1326 19.5548 31.751 19.1735 32.1324L5.78185 45.524C5.69123 45.6148 5.58358 45.6868 5.46506 45.7359C5.34654 45.785 5.2195 45.8102 5.09122 45.8101ZM2.53654 6.71924C2.40827 6.7194 2.28123 6.69421 2.16273 6.64512C2.04423 6.59603 1.93659 6.52402 1.84601 6.4332C1.46466 6.05186 1.46466 5.4335 1.84601 5.05205C4.05958 2.83857 7.00245 1.61963 10.1326 1.61963C13.2629 1.61963 16.2056 2.83857 18.4186 5.05215C18.7999 5.4335 18.7998 6.05186 18.4185 6.4333C18.0369 6.81445 17.4187 6.81436 17.0374 6.43311C15.1933 4.58857 12.7411 3.57275 10.1326 3.57275C7.52413 3.57275 5.07169 4.58857 3.22716 6.4332C3.13655 6.52401 3.02889 6.59602 2.91038 6.6451C2.79186 6.69419 2.66482 6.71938 2.53654 6.71924Z" fill="#0C5BC6"/>
<path d="M14.352 10.0952C14.102 10.0952 13.852 9.99982 13.6612 9.809C12.7188 8.86622 11.4655 8.34689 10.1322 8.34689C8.79893 8.34689 7.54561 8.86613 6.60322 9.809C6.22187 10.1905 5.60352 10.1906 5.22217 9.80929C4.84072 9.42804 4.84053 8.80978 5.22188 8.42824C6.5332 7.11632 8.27705 6.39386 10.1322 6.39386C11.9874 6.39386 13.7313 7.11632 15.0427 8.42833C15.4239 8.80978 15.4238 9.42804 15.0424 9.80939C14.9518 9.90014 14.8442 9.9721 14.7257 10.0212C14.6072 10.0702 14.4802 10.0954 14.352 10.0952ZM11.5131 12.9341C11.3848 12.9343 11.2578 12.9091 11.1393 12.86C11.0208 12.8109 10.9131 12.7389 10.8226 12.6481C10.7321 12.5571 10.6246 12.485 10.5061 12.4358C10.3876 12.3867 10.2605 12.3616 10.1322 12.3619C10.004 12.3616 9.87694 12.3867 9.75847 12.4358C9.63999 12.4849 9.53242 12.557 9.44199 12.648C9.06074 13.0294 8.44238 13.0295 8.06094 12.6481C7.67959 12.2668 7.67949 11.6484 8.06094 11.267C8.61426 10.7136 9.3499 10.4088 10.1323 10.4088C10.9147 10.4088 11.6504 10.7136 12.2037 11.2669C12.5851 11.6484 12.5851 12.2666 12.2037 12.6481C12.1131 12.7389 12.0055 12.8109 11.8869 12.86C11.7684 12.9091 11.6414 12.9343 11.5131 12.9341Z" fill="#0C5BC6"/>
</svg>
