<svg width="406" height="135" viewBox="0 0 406 135" fill="none" xmlns="http://www.w3.org/2000/svg">
<path d="M47.6385 47.144C47.9372 47.1973 48.1905 47.3547 48.3985 47.616C48.6065 47.8773 48.7105 48.1733 48.7105 48.504C48.7105 48.7867 48.6358 49.0427 48.4865 49.272C48.3425 49.496 48.1318 49.6747 47.8545 49.808C47.5772 49.936 47.2545 50 46.8865 50H44.6625V44.44H46.7825C47.1612 44.44 47.4865 44.504 47.7585 44.632C48.0305 44.76 48.2358 44.9333 48.3745 45.152C48.5132 45.3653 48.5825 45.6053 48.5825 45.872C48.5825 46.192 48.4972 46.4587 48.3265 46.672C48.1558 46.8853 47.9265 47.0427 47.6385 47.144ZM45.5745 46.776H46.7025C47.0012 46.776 47.2332 46.7093 47.3985 46.576C47.5692 46.4373 47.6545 46.24 47.6545 45.984C47.6545 45.7333 47.5692 45.5387 47.3985 45.4C47.2332 45.256 47.0012 45.184 46.7025 45.184H45.5745V46.776ZM46.8065 49.256C47.1158 49.256 47.3585 49.1813 47.5345 49.032C47.7105 48.8827 47.7985 48.6747 47.7985 48.408C47.7985 48.136 47.7052 47.92 47.5185 47.76C47.3318 47.6 47.0838 47.52 46.7745 47.52H45.5745V49.256H46.8065ZM53.6936 45.592V50H52.7816V49.48C52.6376 49.6613 52.4482 49.8053 52.2136 49.912C51.9842 50.0133 51.7389 50.064 51.4776 50.064C51.1309 50.064 50.8189 49.992 50.5416 49.848C50.2696 49.704 50.0536 49.4907 49.8936 49.208C49.7389 48.9253 49.6616 48.584 49.6616 48.184V45.592H50.5656V48.048C50.5656 48.4427 50.6642 48.7467 50.8616 48.96C51.0589 49.168 51.3282 49.272 51.6696 49.272C52.0109 49.272 52.2802 49.168 52.4776 48.96C52.6802 48.7467 52.7816 48.4427 52.7816 48.048V45.592H53.6936ZM55.3609 45.008C55.1955 45.008 55.0569 44.952 54.9449 44.84C54.8329 44.728 54.7769 44.5893 54.7769 44.424C54.7769 44.2587 54.8329 44.12 54.9449 44.008C55.0569 43.896 55.1955 43.84 55.3609 43.84C55.5209 43.84 55.6569 43.896 55.7689 44.008C55.8809 44.12 55.9369 44.2587 55.9369 44.424C55.9369 44.5893 55.8809 44.728 55.7689 44.84C55.6569 44.952 55.5209 45.008 55.3609 45.008ZM55.8089 45.592V50H54.8969V45.592H55.8089ZM57.9183 44.08V50H57.0063V44.08H57.9183ZM58.8116 47.776C58.8116 47.3333 58.9023 46.9413 59.0836 46.6C59.2703 46.2587 59.521 45.9947 59.8356 45.808C60.1556 45.616 60.5103 45.52 60.8996 45.52C61.1876 45.52 61.4703 45.584 61.7476 45.712C62.0303 45.8347 62.2543 46 62.4196 46.208V44.08H63.3396V50H62.4196V49.336C62.2703 49.5493 62.0623 49.7253 61.7956 49.864C61.5343 50.0027 61.233 50.072 60.8916 50.072C60.5076 50.072 60.1556 49.976 59.8356 49.784C59.521 49.5867 59.2703 49.3147 59.0836 48.968C58.9023 48.616 58.8116 48.2187 58.8116 47.776ZM62.4196 47.792C62.4196 47.488 62.3556 47.224 62.2276 47C62.105 46.776 61.9423 46.6053 61.7396 46.488C61.537 46.3707 61.3183 46.312 61.0836 46.312C60.849 46.312 60.6303 46.3707 60.4276 46.488C60.225 46.6 60.0596 46.768 59.9316 46.992C59.809 47.2107 59.7476 47.472 59.7476 47.776C59.7476 48.08 59.809 48.3467 59.9316 48.576C60.0596 48.8053 60.225 48.9813 60.4276 49.104C60.6356 49.2213 60.8543 49.28 61.0836 49.28C61.3183 49.28 61.537 49.2213 61.7396 49.104C61.9423 48.9867 62.105 48.816 62.2276 48.592C62.3556 48.3627 62.4196 48.096 62.4196 47.792Z" fill="#332C5C"/>
<path d="M190.967 44.44C191.559 44.44 192.076 44.5547 192.519 44.784C192.967 45.008 193.311 45.3333 193.551 45.76C193.796 46.1813 193.919 46.6747 193.919 47.24C193.919 47.8053 193.796 48.296 193.551 48.712C193.311 49.128 192.967 49.448 192.519 49.672C192.076 49.8907 191.559 50 190.967 50H189.151V44.44H190.967ZM190.967 49.256C191.617 49.256 192.116 49.08 192.463 48.728C192.809 48.376 192.983 47.88 192.983 47.24C192.983 46.5947 192.809 46.0907 192.463 45.728C192.116 45.3653 191.617 45.184 190.967 45.184H190.063V49.256H190.967ZM198.863 47.688C198.863 47.8533 198.852 48.0027 198.831 48.136H195.463C195.489 48.488 195.62 48.7707 195.855 48.984C196.089 49.1973 196.377 49.304 196.719 49.304C197.209 49.304 197.556 49.0987 197.759 48.688H198.743C198.609 49.0933 198.367 49.4267 198.015 49.688C197.668 49.944 197.236 50.072 196.719 50.072C196.297 50.072 195.919 49.9787 195.583 49.792C195.252 49.6 194.991 49.3333 194.799 48.992C194.612 48.6453 194.519 48.2453 194.519 47.792C194.519 47.3387 194.609 46.9413 194.791 46.6C194.977 46.2533 195.236 45.9867 195.567 45.8C195.903 45.6133 196.287 45.52 196.719 45.52C197.135 45.52 197.505 45.6107 197.831 45.792C198.156 45.9733 198.409 46.2293 198.591 46.56C198.772 46.8853 198.863 47.2613 198.863 47.688ZM197.911 47.4C197.905 47.064 197.785 46.7947 197.551 46.592C197.316 46.3893 197.025 46.288 196.679 46.288C196.364 46.288 196.095 46.3893 195.871 46.592C195.647 46.7893 195.513 47.0587 195.471 47.4H197.911ZM200.672 46.24C200.827 46.0373 201.037 45.8667 201.304 45.728C201.571 45.5893 201.872 45.52 202.208 45.52C202.592 45.52 202.941 45.616 203.256 45.808C203.576 45.9947 203.827 46.2587 204.008 46.6C204.189 46.9413 204.28 47.3333 204.28 47.776C204.28 48.2187 204.189 48.616 204.008 48.968C203.827 49.3147 203.576 49.5867 203.256 49.784C202.941 49.976 202.592 50.072 202.208 50.072C201.872 50.072 201.573 50.0053 201.312 49.872C201.051 49.7333 200.837 49.5627 200.672 49.36V52.096H199.76V45.592H200.672V46.24ZM203.352 47.776C203.352 47.472 203.288 47.2107 203.16 46.992C203.037 46.768 202.872 46.6 202.664 46.488C202.461 46.3707 202.243 46.312 202.008 46.312C201.779 46.312 201.56 46.3707 201.352 46.488C201.149 46.6053 200.984 46.776 200.856 47C200.733 47.224 200.672 47.488 200.672 47.792C200.672 48.096 200.733 48.3627 200.856 48.592C200.984 48.816 201.149 48.9867 201.352 49.104C201.56 49.2213 201.779 49.28 202.008 49.28C202.243 49.28 202.461 49.2213 202.664 49.104C202.872 48.9813 203.037 48.8053 203.16 48.576C203.288 48.3467 203.352 48.08 203.352 47.776ZM206.094 44.08V50H205.182V44.08H206.094ZM209.203 50.072C208.787 50.072 208.411 49.9787 208.075 49.792C207.739 49.6 207.475 49.3333 207.283 48.992C207.091 48.6453 206.995 48.2453 206.995 47.792C206.995 47.344 207.094 46.9467 207.291 46.6C207.489 46.2533 207.758 45.9867 208.099 45.8C208.441 45.6133 208.822 45.52 209.243 45.52C209.665 45.52 210.046 45.6133 210.387 45.8C210.729 45.9867 210.998 46.2533 211.195 46.6C211.393 46.9467 211.491 47.344 211.491 47.792C211.491 48.24 211.39 48.6373 211.187 48.984C210.985 49.3307 210.707 49.6 210.355 49.792C210.009 49.9787 209.625 50.072 209.203 50.072ZM209.203 49.28C209.438 49.28 209.657 49.224 209.859 49.112C210.067 49 210.235 48.832 210.363 48.608C210.491 48.384 210.555 48.112 210.555 47.792C210.555 47.472 210.494 47.2027 210.371 46.984C210.249 46.76 210.086 46.592 209.883 46.48C209.681 46.368 209.462 46.312 209.227 46.312C208.993 46.312 208.774 46.368 208.571 46.48C208.374 46.592 208.217 46.76 208.099 46.984C207.982 47.2027 207.923 47.472 207.923 47.792C207.923 48.2667 208.043 48.6347 208.283 48.896C208.529 49.152 208.835 49.28 209.203 49.28ZM216.361 45.592L213.657 52.072H212.713L213.609 49.928L211.873 45.592H212.889L214.129 48.952L215.417 45.592H216.361Z" fill="#332C5C"/>
<path d="M339.467 44.44C340.059 44.44 340.576 44.5547 341.019 44.784C341.467 45.008 341.811 45.3333 342.051 45.76C342.296 46.1813 342.419 46.6747 342.419 47.24C342.419 47.8053 342.296 48.296 342.051 48.712C341.811 49.128 341.467 49.448 341.019 49.672C340.576 49.8907 340.059 50 339.467 50H337.651V44.44H339.467ZM339.467 49.256C340.117 49.256 340.616 49.08 340.963 48.728C341.309 48.376 341.483 47.88 341.483 47.24C341.483 46.5947 341.309 46.0907 340.963 45.728C340.616 45.3653 340.117 45.184 339.467 45.184H338.563V49.256H339.467ZM347.363 47.688C347.363 47.8533 347.352 48.0027 347.331 48.136H343.963C343.989 48.488 344.12 48.7707 344.355 48.984C344.589 49.1973 344.877 49.304 345.219 49.304C345.709 49.304 346.056 49.0987 346.259 48.688H347.243C347.109 49.0933 346.867 49.4267 346.515 49.688C346.168 49.944 345.736 50.072 345.219 50.072C344.797 50.072 344.419 49.9787 344.083 49.792C343.752 49.6 343.491 49.3333 343.299 48.992C343.112 48.6453 343.019 48.2453 343.019 47.792C343.019 47.3387 343.109 46.9413 343.291 46.6C343.477 46.2533 343.736 45.9867 344.067 45.8C344.403 45.6133 344.787 45.52 345.219 45.52C345.635 45.52 346.005 45.6107 346.331 45.792C346.656 45.9733 346.909 46.2293 347.091 46.56C347.272 46.8853 347.363 47.2613 347.363 47.688ZM346.411 47.4C346.405 47.064 346.285 46.7947 346.051 46.592C345.816 46.3893 345.525 46.288 345.179 46.288C344.864 46.288 344.595 46.3893 344.371 46.592C344.147 46.7893 344.013 47.0587 343.971 47.4H346.411ZM349.172 46.24C349.327 46.0373 349.537 45.8667 349.804 45.728C350.071 45.5893 350.372 45.52 350.708 45.52C351.092 45.52 351.441 45.616 351.756 45.808C352.076 45.9947 352.327 46.2587 352.508 46.6C352.689 46.9413 352.78 47.3333 352.78 47.776C352.78 48.2187 352.689 48.616 352.508 48.968C352.327 49.3147 352.076 49.5867 351.756 49.784C351.441 49.976 351.092 50.072 350.708 50.072C350.372 50.072 350.073 50.0053 349.812 49.872C349.551 49.7333 349.337 49.5627 349.172 49.36V52.096H348.26V45.592H349.172V46.24ZM351.852 47.776C351.852 47.472 351.788 47.2107 351.66 46.992C351.537 46.768 351.372 46.6 351.164 46.488C350.961 46.3707 350.743 46.312 350.508 46.312C350.279 46.312 350.06 46.3707 349.852 46.488C349.649 46.6053 349.484 46.776 349.356 47C349.233 47.224 349.172 47.488 349.172 47.792C349.172 48.096 349.233 48.3627 349.356 48.592C349.484 48.816 349.649 48.9867 349.852 49.104C350.06 49.2213 350.279 49.28 350.508 49.28C350.743 49.28 350.961 49.2213 351.164 49.104C351.372 48.9813 351.537 48.8053 351.66 48.576C351.788 48.3467 351.852 48.08 351.852 47.776ZM354.594 44.08V50H353.682V44.08H354.594ZM357.703 50.072C357.287 50.072 356.911 49.9787 356.575 49.792C356.239 49.6 355.975 49.3333 355.783 48.992C355.591 48.6453 355.495 48.2453 355.495 47.792C355.495 47.344 355.594 46.9467 355.791 46.6C355.989 46.2533 356.258 45.9867 356.599 45.8C356.941 45.6133 357.322 45.52 357.743 45.52C358.165 45.52 358.546 45.6133 358.887 45.8C359.229 45.9867 359.498 46.2533 359.695 46.6C359.893 46.9467 359.991 47.344 359.991 47.792C359.991 48.24 359.89 48.6373 359.687 48.984C359.485 49.3307 359.207 49.6 358.855 49.792C358.509 49.9787 358.125 50.072 357.703 50.072ZM357.703 49.28C357.938 49.28 358.157 49.224 358.359 49.112C358.567 49 358.735 48.832 358.863 48.608C358.991 48.384 359.055 48.112 359.055 47.792C359.055 47.472 358.994 47.2027 358.871 46.984C358.749 46.76 358.586 46.592 358.383 46.48C358.181 46.368 357.962 46.312 357.727 46.312C357.493 46.312 357.274 46.368 357.071 46.48C356.874 46.592 356.717 46.76 356.599 46.984C356.482 47.2027 356.423 47.472 356.423 47.792C356.423 48.2667 356.543 48.6347 356.783 48.896C357.029 49.152 357.335 49.28 357.703 49.28ZM364.861 45.592L362.157 52.072H361.213L362.109 49.928L360.373 45.592H361.389L362.629 48.952L363.917 45.592H364.861Z" fill="#332C5C"/>
<path d="M54.5 40.938L0 64.2942V110.885L54.5 134.242L109 110.885V64.2942L54.5 40.938ZM82.0782 72.5663L54.5 84.1229L27.25 72.445L54.5 40.938L82.0782 72.5663ZM23.9666 76.3376L51.381 88.1372V132.905L23.9666 121.157V76.3376ZM57.619 132.905V88.1372L85.0334 76.3376V121.157L57.619 132.905Z" fill="black" fill-opacity="0.14"/>
<path d="M351.5 40.938L297 64.2942V110.885L351.5 134.242L406 110.885V64.2942L351.5 40.938ZM379.078 72.5663L351.5 84.1229L324.25 72.445L351.5 40.938L379.078 72.5663ZM320.967 76.3376L348.381 88.1372V132.905L320.967 121.157V76.3376ZM354.619 132.905V88.1372L382.033 76.3376V121.157L354.619 132.905Z" fill="black" fill-opacity="0.14"/>
<path d="M203 40.938L149 64.2942V110.885L203 134.242L257 110.885V64.2942L203 40.938ZM230.325 72.5663L203 84.1229L176 72.445L203 40.938L230.325 72.5663ZM172.747 76.3376L199.91 88.1372V132.905L172.747 121.157V76.3376ZM206.09 132.905V88.1372L233.253 76.3376V121.157L206.09 132.905Z" fill="black" fill-opacity="0.14"/>
<path d="M136.013 84.0389C140.006 86.3899 143.88 88.6655 148 91.0856C143.413 93.7755 139.017 96.3531 134.286 99.1275C134.286 97.4359 134.286 96.0977 134.286 94.6079C125.813 94.6079 117.489 94.6079 109 94.6079C109 92.3446 109 90.2281 109 87.9314C117.252 87.9314 125.566 87.9314 134.076 87.9314C134.076 86.3194 134.076 84.8784 134.076 83.0752C134.925 83.4903 135.409 83.7269 136.013 84.0389Z" fill="#C6DEFF"/>
<path d="M284.706 84.0389C288.801 86.3899 292.774 88.6655 297 91.0856C292.295 93.7755 287.787 96.3531 282.934 99.1275C282.934 97.4359 282.934 96.0977 282.934 94.6079C274.244 94.6079 265.707 94.6079 257 94.6079C257 92.3446 257 90.2281 257 87.9314C265.464 87.9314 273.991 87.9314 282.719 87.9314C282.719 86.3194 282.719 84.8784 282.719 83.0752C283.59 83.4903 284.087 83.7269 284.706 84.0389Z" fill="#C6DEFF"/>
<path d="M207 39.5243C207 40.7151 207 41.7973 207 42.9444C203.946 42.9444 201.041 42.9444 198 42.9444C198 28.9083 198 14.8909 198 0.807129C200.931 0.807129 203.839 0.807129 207 0.807129C207 13.6861 207 26.5508 207 39.5243Z" fill="url(#paint0_linear_0_1608)" fill-opacity="0.25"/>
<path d="M250.373 0.807192C251.984 0.807192 253.448 0.807192 255 0.807192C255 3.19012 255 5.45737 255 7.83008C236.013 7.83008 217.051 7.83008 198 7.83008C198 5.54264 198 3.27372 198 0.807192C215.422 0.807192 232.824 0.807192 250.373 0.807192Z" fill="url(#paint1_linear_0_1608)" fill-opacity="0.25"/>
<defs>
<linearGradient id="paint0_linear_0_1608" x1="202.5" y1="0.807129" x2="202.5" y2="42.9444" gradientUnits="userSpaceOnUse">
<stop/>
<stop offset="1" stop-opacity="0"/>
</linearGradient>
<linearGradient id="paint1_linear_0_1608" x1="198" y1="4.31864" x2="255" y2="4.31864" gradientUnits="userSpaceOnUse">
<stop/>
<stop offset="1" stop-opacity="0"/>
</linearGradient>
</defs>
</svg>
